<?xml version="1.0" standalone="no"?>
<!DOCTYPE svg PUBLIC "-//W3C//DTD SVG 20010904//EN"
 "http://www.w3.org/TR/2001/REC-SVG-20010904/DTD/svg10.dtd">
<svg version="1.0" xmlns="http://www.w3.org/2000/svg"
 width="574.000000pt" height="574.000000pt" viewBox="0 0 574.000000 574.000000"
 preserveAspectRatio="xMidYMid meet">
<metadata>
Created by potrace 1.11, written by Peter Selinger 2001-2013
</metadata>
<g transform="translate(0.000000,574.000000) scale(0.100000,-0.100000)"
fill="#000000" stroke="none">
<path d="M1619 4109 c-602 -606 -1104 -1111 -1117 -1123 -22 -21 -22 -23 -7
-71 8 -28 15 -51 15 -52 0 -2 0 -4 1 -5 5 -18 31 -125 35 -147 3 -13 9 -32 14
-42 6 -10 10 -29 10 -43 0 -14 5 -28 11 -31 5 -4 8 -12 6 -18 -2 -7 2 -28 9
-47 7 -19 27 -91 44 -160 18 -69 38 -146 46 -171 8 -25 17 -55 19 -67 10 -47
13 -59 25 -102 7 -25 14 -52 15 -60 2 -8 4 -15 5 -15 1 0 61 -221 74 -275 26
-103 68 -255 71 -258 3 -3 185 -55 360 -102 155 -42 241 -65 440 -121 39 -11
79 -22 90 -24 11 -3 52 -14 90 -26 39 -11 79 -22 90 -24 22 -4 182 -49 232
-65 18 -6 41 -13 53 -15 11 -2 109 -29 218 -59 108 -30 217 -60 242 -67 25 -7
50 -14 55 -15 23 -7 161 -45 178 -49 9 -3 25 -7 35 -10 9 -2 58 -16 107 -30
50 -14 98 -27 108 -30 10 -2 52 -14 95 -25 42 -12 84 -23 92 -25 8 -2 80 -22
160 -45 116 -33 255 -71 345 -94 6 -2 21 -8 35 -13 14 -6 28 -9 32 -6 4 2 17
-1 29 -7 20 -11 65 32 589 559 l567 571 -39 138 c-38 133 -43 153 -52 190 -3
9 -23 85 -46 167 -23 83 -43 157 -45 165 -3 8 -9 35 -16 60 -6 25 -13 52 -16
60 -3 8 -8 24 -10 35 -2 11 -8 31 -13 45 -5 14 -12 36 -14 50 -3 14 -5 25 -7
25 -1 0 -3 9 -5 20 -2 11 -24 92 -49 180 -25 88 -47 170 -49 182 -3 13 -7 26
-10 31 -3 5 -7 19 -10 33 -8 38 -13 59 -36 134 -11 39 -22 81 -25 95 -2 14 -9
36 -14 50 -5 14 -19 63 -31 110 -24 89 -70 260 -95 345 -14 49 -36 130 -41
150 -1 6 -10 37 -19 70 -18 67 -23 86 -29 115 -3 11 -7 24 -10 28 -3 5 -7 19
-10 33 -9 47 -157 584 -164 598 -7 13 -105 44 -182 57 -19 3 -43 10 -52 15
-10 5 -18 8 -18 5 0 -3 -15 0 -32 5 -18 6 -44 12 -58 15 -14 3 -39 9 -56 15
-17 5 -44 11 -60 14 -16 2 -69 15 -119 28 -49 14 -117 31 -150 38 -68 14 -65
14 -85 22 -12 4 -348 88 -415 102 -47 11 -66 15 -185 45 -69 17 -132 33 -141
35 -10 4 -368 -350 -1110 -1096z m1561 -461 c25 -95 30 -114 33 -133 2 -11 7
-27 10 -35 6 -15 71 -254 87 -320 4 -19 16 -62 25 -95 9 -33 18 -67 20 -75 4
-15 13 -48 55 -205 12 -44 23 -87 25 -95 2 -8 14 -51 25 -95 111 -408 118
-435 105 -435 -4 0 -109 25 -232 55 -124 31 -233 57 -242 59 -9 1 -27 6 -41 9
-54 14 -162 39 -178 42 -9 2 -17 4 -17 6 0 1 -9 3 -20 4 -11 2 -76 17 -145 35
-69 17 -136 33 -150 36 -14 3 -52 12 -85 21 -33 8 -67 16 -75 18 -8 2 -53 13
-100 24 -47 12 -94 23 -105 26 -11 2 -54 12 -95 22 l-75 19 575 577 c316 317
578 577 582 577 4 0 12 -19 18 -42z"/>
</g>
</svg>
