<?xml version="1.0" encoding="UTF-8" standalone="no"?>
<svg
   xmlns:dc="http://purl.org/dc/elements/1.1/"
   xmlns:cc="http://creativecommons.org/ns#"
   xmlns:rdf="http://www.w3.org/1999/02/22-rdf-syntax-ns#"
   xmlns:svg="http://www.w3.org/2000/svg"
   xmlns="http://www.w3.org/2000/svg"
   id="svg25"
   version="1.1"
   viewBox="0 0 336.08041 262.67337"
   height="262.67337"
   width="336.08041">
  <metadata
     id="metadata29">
    <rdf:RDF>
      <cc:Work
         rdf:about="">
        <dc:format>image/svg+xml</dc:format>
        <dc:type
           rdf:resource="http://purl.org/dc/dcmitype/StillImage" />
        <dc:title>logo-light</dc:title>
      </cc:Work>
    </rdf:RDF>
  </metadata>
  <!-- Generator: Sketch 47.1 (45422) - http://www.bohemiancoding.com/sketch -->
  <title
     id="title10">logo-light</title>
  <desc
     id="desc12">Created with Sketch.</desc>
  <defs
     id="defs14">
    <clipPath
       id="clipPath33"
       clipPathUnits="userSpaceOnUse">
      <rect
         ry="6.6291299"
         y="0.88442212"
         x="46.874367"
         height="262.67337"
         width="336.08041"
         id="rect35"
         style="fill:#000000;fill-opacity:1" />
    </clipPath>
  </defs>
  <g
     transform="translate(-46.874367,-0.88442212)"
     style="fill:none;fill-rule:evenodd;stroke:none;stroke-width:1"
     clip-path="url(#clipPath33)"
     id="Page-1">
    <g
       transform="translate(-582,-209)"
       id="logos">
      <g
         transform="translate(582,208)"
         id="logo-light">
        <path
           style="fill:#bbbbbb"
           id="logo-text"
           d="m 0.52,351 v -56.56 h 28.16 c 5.36,0 10.48,0.32 13.92,1.76 7.52,3.2 9.76,10.88 9.76,16.32 0,2.16 -0.24,7.2 -4.32,11.36 -2.24,2.4 -4.64,3.28 -7.28,4.32 L 54.52,351 H 34.68 L 23.72,331.08 H 18.44 V 351 Z M 25.8,306.28 h -7.36 v 13.2 h 7.44 c 2.96,0 8.64,-0.16 8.64,-6.56 0,-6.48 -5.6,-6.64 -8.72,-6.64 z M 57.16,351 H 75.08 V 294.52 H 57.16 Z m 65.2,-21.92 c -0.64,1.92 -3.12,9.28 -11.44,9.28 -8.8,0 -11.92,-7.92 -11.92,-16.32 0,-2.24 0,-8.64 4.24,-12.72 1.2,-1.2 3.68,-3.04 7.6,-3.04 7.52,0 10.24,6 11.68,9.36 l 14.96,-7.44 c -1.2,-2.24 -2.32,-4.16 -4.72,-6.64 -5.92,-6.08 -14.08,-9.12 -22.64,-9.12 -19.12,0 -29.28,15.44 -29.28,30.64 0,14.48 9.12,29.68 29.28,29.68 8.08,0 16.16,-2.64 21.92,-8.32 2.72,-2.72 4.08,-5.28 5.52,-8 z M 142.12,351 h 47.12 v -12.24 h -29.2 v -11.2 h 25.04 v -12.24 h -25.04 v -8.4 h 26.8 v -12.4 h -44.72 z m 48.16,0 21.6,-56.48 H 232.2 L 253.32,351 h -19.2 l -2.48,-7.84 h -19.68 l -2.48,7.84 z m 37.68,-20.48 -6,-19.92 -6.16,19.92 z M 257.24,351 v -56.56 h 32.32 c 6.16,0.24 11.52,0.56 16.08,5.28 4.16,4.4 4.72,9.6 4.72,13.2 0,4.72 -0.96,9.84 -5.36,14.4 -4.72,4.88 -9.92,5.12 -16.08,5.28 H 275.16 V 351 Z m 28,-44.64 h -10.08 v 14.4 h 10.24 c 0.96,-0.08 2,-0.08 2.96,-0.4 2.72,-0.88 4.32,-3.44 4.32,-6.88 0,-6.64 -5.2,-6.96 -7.44,-7.12 z M 313.88,351 v -56.56 h 32.32 c 6.16,0.24 11.52,0.56 16.08,5.28 4.16,4.4 4.72,9.6 4.72,13.2 0,4.72 -0.96,9.84 -5.36,14.4 -4.72,4.88 -9.92,5.12 -16.08,5.28 H 331.8 V 351 Z m 28,-44.64 H 331.8 v 14.4 h 10.24 c 0.96,-0.08 2,-0.08 2.96,-0.4 2.72,-0.88 4.32,-3.44 4.32,-6.88 0,-6.64 -5.2,-6.96 -7.44,-7.12 z m 25.68,33.92 c 2.56,3.12 6.72,8.16 15.68,10.72 4.4,1.28 8.88,1.68 13.12,1.68 3.12,0 14.48,0 21.6,-7.28 2.56,-2.64 5.04,-6.8 5.04,-12.72 0,-14 -12.48,-16.24 -25.04,-18.4 -4.88,-0.88 -7.76,-1.6 -7.76,-4.32 0,-2.88 3.36,-3.68 6.4,-3.68 2.88,0 7.2,0.48 10.48,2.08 2.48,1.28 3.44,2.56 4.32,3.68 l 11.2,-9.36 c -2,-2.08 -4.08,-4.32 -8.32,-6.4 -4.64,-2.32 -10.56,-3.6 -17.04,-3.6 -10.16,0 -19.68,3.28 -23.36,11.6 -1.04,2.24 -1.6,4.8 -1.6,7.28 0,11.92 10.16,15.12 15.36,16.48 2.32,0.56 12.72,2.4 14.72,3.12 3.12,1.04 3.12,3.12 3.12,3.52 0,4.08 -7.04,4.24 -8.48,4.24 -2.72,0 -5.6,-0.48 -7.92,-1.28 -4.88,-1.6 -6.24,-3.68 -7.84,-6.16 z" />
        <g
           transform="translate(93)"
           id="logo">
          <polygon
             style="fill:#bcbdbf"
             points="176.47119,233.04883 20.938477,190.2041 76.316406,134.48242 155.29541,153.54199 "
             id="Rectangle-3" />
          <polygon
             style="fill:#bcbdbf"
             points="232.78711,176.29297 176.24902,233.1377 134.32129,76.052734 190.0498,20.470703 "
             id="Rectangle-2" />
          <polygon
             style="fill:#ffffff"
             points="20.990234,190.28711 0.3984375,113.08398 111.80664,0.97460938 190.07227,20.339844 "
             id="Rectangle" />
          <polygon
             style="fill:#ffffff"
             points="98.055176,211.48267 155.06836,153.51904 176.48682,233.11279 "
             id="Triangle" />
        </g>
      </g>
    </g>
  </g>
  <g
     transform="translate(-46.874367,-0.88442212)"
     style="fill:none;fill-rule:evenodd;stroke:none;stroke-width:1"
     id="g72"
     clip-path="url(#clipPath33)">
    <g
       id="g70"
       transform="translate(-582,-209)">
      <g
         id="g68"
         transform="translate(582,208)">
        <path
           style="fill:#bbbbbb"
           d="m 0.52,351 v -56.56 h 28.16 c 5.36,0 10.48,0.32 13.92,1.76 7.52,3.2 9.76,10.88 9.76,16.32 0,2.16 -0.24,7.2 -4.32,11.36 -2.24,2.4 -4.64,3.28 -7.28,4.32 L 54.52,351 H 34.68 L 23.72,331.08 H 18.44 V 351 Z M 25.8,306.28 h -7.36 v 13.2 h 7.44 c 2.96,0 8.64,-0.16 8.64,-6.56 0,-6.48 -5.6,-6.64 -8.72,-6.64 z M 57.16,351 H 75.08 V 294.52 H 57.16 Z m 65.2,-21.92 c -0.64,1.92 -3.12,9.28 -11.44,9.28 -8.8,0 -11.92,-7.92 -11.92,-16.32 0,-2.24 0,-8.64 4.24,-12.72 1.2,-1.2 3.68,-3.04 7.6,-3.04 7.52,0 10.24,6 11.68,9.36 l 14.96,-7.44 c -1.2,-2.24 -2.32,-4.16 -4.72,-6.64 -5.92,-6.08 -14.08,-9.12 -22.64,-9.12 -19.12,0 -29.28,15.44 -29.28,30.64 0,14.48 9.12,29.68 29.28,29.68 8.08,0 16.16,-2.64 21.92,-8.32 2.72,-2.72 4.08,-5.28 5.52,-8 z M 142.12,351 h 47.12 v -12.24 h -29.2 v -11.2 h 25.04 v -12.24 h -25.04 v -8.4 h 26.8 v -12.4 h -44.72 z m 48.16,0 21.6,-56.48 H 232.2 L 253.32,351 h -19.2 l -2.48,-7.84 h -19.68 l -2.48,7.84 z m 37.68,-20.48 -6,-19.92 -6.16,19.92 z M 257.24,351 v -56.56 h 32.32 c 6.16,0.24 11.52,0.56 16.08,5.28 4.16,4.4 4.72,9.6 4.72,13.2 0,4.72 -0.96,9.84 -5.36,14.4 -4.72,4.88 -9.92,5.12 -16.08,5.28 H 275.16 V 351 Z m 28,-44.64 h -10.08 v 14.4 h 10.24 c 0.96,-0.08 2,-0.08 2.96,-0.4 2.72,-0.88 4.32,-3.44 4.32,-6.88 0,-6.64 -5.2,-6.96 -7.44,-7.12 z M 313.88,351 v -56.56 h 32.32 c 6.16,0.24 11.52,0.56 16.08,5.28 4.16,4.4 4.72,9.6 4.72,13.2 0,4.72 -0.96,9.84 -5.36,14.4 -4.72,4.88 -9.92,5.12 -16.08,5.28 H 331.8 V 351 Z m 28,-44.64 H 331.8 v 14.4 h 10.24 c 0.96,-0.08 2,-0.08 2.96,-0.4 2.72,-0.88 4.32,-3.44 4.32,-6.88 0,-6.64 -5.2,-6.96 -7.44,-7.12 z m 25.68,33.92 c 2.56,3.12 6.72,8.16 15.68,10.72 4.4,1.28 8.88,1.68 13.12,1.68 3.12,0 14.48,0 21.6,-7.28 2.56,-2.64 5.04,-6.8 5.04,-12.72 0,-14 -12.48,-16.24 -25.04,-18.4 -4.88,-0.88 -7.76,-1.6 -7.76,-4.32 0,-2.88 3.36,-3.68 6.4,-3.68 2.88,0 7.2,0.48 10.48,2.08 2.48,1.28 3.44,2.56 4.32,3.68 l 11.2,-9.36 c -2,-2.08 -4.08,-4.32 -8.32,-6.4 -4.64,-2.32 -10.56,-3.6 -17.04,-3.6 -10.16,0 -19.68,3.28 -23.36,11.6 -1.04,2.24 -1.6,4.8 -1.6,7.28 0,11.92 10.16,15.12 15.36,16.48 2.32,0.56 12.72,2.4 14.72,3.12 3.12,1.04 3.12,3.12 3.12,3.52 0,4.08 -7.04,4.24 -8.48,4.24 -2.72,0 -5.6,-0.48 -7.92,-1.28 -4.88,-1.6 -6.24,-3.68 -7.84,-6.16 z"
           id="path56" />
        <g
           id="g66"
           transform="translate(93)">
          <polygon
             style="fill:#bcbdbf"
             id="polygon58"
             points="176.47119,233.04883 20.938477,190.2041 76.316406,134.48242 155.29541,153.54199 " />
          <polygon
             style="fill:#bcbdbf"
             id="polygon60"
             points="232.78711,176.29297 176.24902,233.1377 134.32129,76.052734 190.0498,20.470703 " />
          <polygon
             style="fill:#ffffff"
             id="polygon62"
             points="20.990234,190.28711 0.3984375,113.08398 111.80664,0.97460938 190.07227,20.339844 " />
          <polygon
             style="fill:#ffffff"
             id="polygon64"
             points="98.055176,211.48267 155.06836,153.51904 176.48682,233.11279 " />
        </g>
      </g>
    </g>
  </g>
</svg>
